{
	"asset":{
		"generator":"Khronos glTF Blender I/O v4.2.60",
		"version":"2.0"
	},
	"scene":0,
	"scenes":[
		{
			"name":"Scene",
			"nodes":[
				0,
				1
			]
		}
	],
	"nodes":[
		{
			"mesh":0,
			"name":"MAP",
			"rotation":[
				0.23580226302146912,
				-0.17306259274482727,
				0.09706468880176544,
				0.9513280391693115
			],
			"scale":[
				3.332517147064209,
				3.332516670227051,
				3.332516670227051
			]
		},
		{
			"mesh":1,
			"name":"Icosphere"
		}
	],
	"animations":[
		{
			"channels":[
				{
					"sampler":0,
					"target":{
						"node":0,
						"path":"translation"
					}
				},
				{
					"sampler":1,
					"target":{
						"node":0,
						"path":"rotation"
					}
				},
				{
					"sampler":2,
					"target":{
						"node":0,
						"path":"scale"
					}
				}
			],
			"name":"MAPAction",
			"samplers":[
				{
					"input":8,
					"interpolation":"STEP",
					"output":9
				},
				{
					"input":10,
					"interpolation":"LINEAR",
					"output":11
				},
				{
					"input":8,
					"interpolation":"STEP",
					"output":12
				}
			]
		}
	],
	"materials":[
		{
			"doubleSided":true,
			"name":"swiat",
			"pbrMetallicRoughness":{
				"baseColorFactor":[
					0.8401086330413818,
					0.8401086330413818,
					0.8401086330413818,
					1
				],
				"metallicFactor":0,
				"roughnessFactor":0.5
			}
		},
		{
			"doubleSided":true,
			"name":"Material",
			"pbrMetallicRoughness":{
				"metallicFactor":0.5025908946990967,
				"roughnessFactor":0.8005180954933167
			}
		}
	],
	"meshes":[
		{
			"name":"Plane",
			"primitives":[
				{
					"attributes":{
						"POSITION":0,
						"NORMAL":1,
						"TEXCOORD_0":2
					},
					"indices":3,
					"material":0
				}
			]
		},
		{
			"name":"Icosphere.001",
			"primitives":[
				{
					"attributes":{
						"POSITION":4,
						"NORMAL":5,
						"TEXCOORD_0":6
					},
					"indices":7,
					"material":1
				}
			]
		}
	],
	"accessors":[
		{
			"bufferView":0,
			"componentType":5126,
			"count":42828,
			"max":[
				0.30381467938423157,
				0.2666606903076172,
				0.3042551577091217
			],
			"min":[
				-0.3043311834335327,
				-0.2456614375114441,
				-0.2877492308616638
			],
			"type":"VEC3"
		},
		{
			"bufferView":1,
			"componentType":5126,
			"count":42828,
			"type":"VEC3"
		},
		{
			"bufferView":2,
			"componentType":5126,
			"count":42828,
			"type":"VEC2"
		},
		{
			"bufferView":3,
			"componentType":5123,
			"count":116808,
			"type":"SCALAR"
		},
		{
			"bufferView":4,
			"componentType":5126,
			"count":2737,
			"max":[
				1,
				1,
				0.9999999403953552
			],
			"min":[
				-0.9999999403953552,
				-1,
				-0.9999999403953552
			],
			"type":"VEC3"
		},
		{
			"bufferView":5,
			"componentType":5126,
			"count":2737,
			"type":"VEC3"
		},
		{
			"bufferView":6,
			"componentType":5126,
			"count":2737,
			"type":"VEC2"
		},
		{
			"bufferView":7,
			"componentType":5123,
			"count":15360,
			"type":"SCALAR"
		},
		{
			"bufferView":8,
			"componentType":5126,
			"count":2,
			"max":[
				7.5
			],
			"min":[
				0.041666666666666664
			],
			"type":"SCALAR"
		},
		{
			"bufferView":9,
			"componentType":5126,
			"count":2,
			"type":"VEC3"
		},
		{
			"bufferView":10,
			"componentType":5126,
			"count":180,
			"max":[
				7.5
			],
			"min":[
				0.041666666666666664
			],
			"type":"SCALAR"
		},
		{
			"bufferView":11,
			"componentType":5126,
			"count":180,
			"type":"VEC4"
		},
		{
			"bufferView":12,
			"componentType":5126,
			"count":2,
			"type":"VEC3"
		}
	],
	"bufferViews":[
		{
			"buffer":0,
			"byteLength":513936,
			"byteOffset":0,
			"target":34962
		},
		{
			"buffer":0,
			"byteLength":513936,
			"byteOffset":513936,
			"target":34962
		},
		{
			"buffer":0,
			"byteLength":342624,
			"byteOffset":1027872,
			"target":34962
		},
		{
			"buffer":0,
			"byteLength":233616,
			"byteOffset":1370496,
			"target":34963
		},
		{
			"buffer":0,
			"byteLength":32844,
			"byteOffset":1604112,
			"target":34962
		},
		{
			"buffer":0,
			"byteLength":32844,
			"byteOffset":1636956,
			"target":34962
		},
		{
			"buffer":0,
			"byteLength":21896,
			"byteOffset":1669800,
			"target":34962
		},
		{
			"buffer":0,
			"byteLength":30720,
			"byteOffset":1691696,
			"target":34963
		},
		{
			"buffer":0,
			"byteLength":8,
			"byteOffset":1722416
		},
		{
			"buffer":0,
			"byteLength":24,
			"byteOffset":1722424
		},
		{
			"buffer":0,
			"byteLength":720,
			"byteOffset":1722448
		},
		{
			"buffer":0,
			"byteLength":2880,
			"byteOffset":1723168
		},
		{
			"buffer":0,
			"byteLength":24,
			"byteOffset":1726048
		}
	],
	"buffers":[
		{
			"byteLength":1726072,
			"uri":"data:application/octet-stream;base64,"
		}
	]
}
